<?xml version="1.0" encoding="UTF-8" standalone="no"?>
<!-- Created with Inkscape (http://www.inkscape.org/) -->

<svg
   xmlns:dc="http://purl.org/dc/elements/1.1/"
   xmlns:cc="http://creativecommons.org/ns#"
   xmlns:rdf="http://www.w3.org/1999/02/22-rdf-syntax-ns#"
   xmlns:svg="http://www.w3.org/2000/svg"
   xmlns="http://www.w3.org/2000/svg"
   xmlns:sodipodi="http://sodipodi.sourceforge.net/DTD/sodipodi-0.dtd"
   xmlns:inkscape="http://www.inkscape.org/namespaces/inkscape"
   width="744.09448819"
   height="1052.3622047"
   id="svg2"
   version="1.1"
   inkscape:version="0.48.4 r9939"
   sodipodi:docname="dmm.svg"
   inkscape:export-filename="C:\Users\Adam\Desktop\dmm.png"
   inkscape:export-xdpi="151.88383"
   inkscape:export-ydpi="151.88383">
  <defs
     id="defs4" />
  <sodipodi:namedview
     id="base"
     pagecolor="#ffffff"
     bordercolor="#666666"
     borderopacity="1.0"
     inkscape:pageopacity="0.0"
     inkscape:pageshadow="2"
     inkscape:zoom="1"
     inkscape:cx="187.36386"
     inkscape:cy="690.12942"
     inkscape:document-units="px"
     inkscape:current-layer="layer1"
     showgrid="false"
     inkscape:window-width="1292"
     inkscape:window-height="746"
     inkscape:window-x="66"
     inkscape:window-y="511"
     inkscape:window-maximized="1" />
  <metadata
     id="metadata7">
    <rdf:RDF>
      <cc:Work
         rdf:about="">
        <dc:format>image/svg+xml</dc:format>
        <dc:type
           rdf:resource="http://purl.org/dc/dcmitype/StillImage" />
        <dc:title></dc:title>
      </cc:Work>
    </rdf:RDF>
  </metadata>
  <g
     inkscape:label="Layer 1"
     inkscape:groupmode="layer"
     id="layer1">
    <path
       style="fill:#ffff00;stroke:#000000;stroke-width:1px;stroke-linecap:butt;stroke-linejoin:miter;stroke-opacity:1;fill-opacity:1"
       d="m 450.97676,87.391208 c 31.38058,0.96468 39.10604,6.89217 49.90372,17.451452 10.79768,10.55929 16.30741,22.35244 18.13718,88.06305 2.01309,72.29413 -11.85269,166.43523 -12.56017,193.92825 -1.34805,52.38564 3.08743,105.80907 5.58794,152.66238 1.87726,35.1752 -0.5286,76.66077 -16.04597,110.0635 -7.17388,15.44253 -22.8611,24.32313 -41.80963,25.58559 -37.46198,2.49593 -86.1901,2.95844 -86.1901,2.95844 0,0 -48.72812,-0.51731 -86.1901,-3.01324 C 262.8611,673.82817 247.17388,664.94757 240,649.50504 c -15.51737,-33.40273 -17.92323,-74.8883 -16.04597,-110.0635 2.50051,-46.85331 6.93599,-100.27674 5.58794,-152.66238 -0.70748,-27.49302 -14.57326,-121.63412 -12.56017,-193.92825 1.82977,-65.71061 7.3395,-77.50376 18.13718,-88.06305 10.79768,-10.559282 18.52314,-16.486772 49.90372,-17.451449 20.39393,-0.626935 50.60679,-1.029569 82.97703,-0.661114 32.37024,-0.313659 62.5831,0.089 82.97703,0.715911 z"
       id="path2996-1"
       inkscape:connector-curvature="0"
       sodipodi:nodetypes="szssssscssssszscs" />
    <rect
       style="fill:#323232;fill-opacity:1;fill-rule:nonzero;stroke:#323232;stroke-width:4.72534704;stroke-linecap:round;stroke-linejoin:miter;stroke-miterlimit:4;stroke-opacity:1;stroke-dasharray:none"
       id="rect3784"
       width="226.60736"
       height="540.2597"
       x="256.15961"
       y="116.54179"
       rx="44.599998"
       ry="44.599998" />
    <rect
       style="fill:#8c8cba;fill-opacity:1;fill-rule:nonzero;stroke:#8c8cba;stroke-width:3.54330707000000000;stroke-linecap:round;stroke-linejoin:miter;stroke-miterlimit:4;stroke-opacity:1;stroke-dasharray:none"
       id="rect3786"
       width="206.32365"
       height="130.05714"
       x="268.1955"
       y="150.29596"
       rx="5"
       ry="5" />
    <path
       sodipodi:type="arc"
       style="fill:#8c8cba;fill-opacity:1;fill-rule:nonzero;stroke:#8c8cba;stroke-width:3.54330707;stroke-linecap:round;stroke-linejoin:miter;stroke-miterlimit:4;stroke-opacity:1;stroke-dasharray:none"
       id="path3788"
       sodipodi:cx="428.80975"
       sodipodi:cy="388.69196"
       sodipodi:rx="57.07362"
       sodipodi:ry="55.558392"
       d="m 371.73613,388.69195 a 57.07362,55.558392 0 1 1 0.0265,1.69157"
       sodipodi:start="3.1415927"
       sodipodi:end="9.3943267"
       sodipodi:open="true"
       transform="matrix(1.2740093,0,0,1.308755,-175.91169,-65.172932)" />
    <rect
       style="fill:#8c8cba;fill-opacity:1;fill-rule:nonzero;stroke:#20231e;stroke-width:3.54330707;stroke-linecap:round;stroke-linejoin:miter;stroke-miterlimit:4;stroke-opacity:1;stroke-dasharray:none"
       id="rect3790"
       width="19"
       height="120"
       x="360.58578"
       y="373.23047"
       rx="5"
       ry="5" />
  </g>
</svg>
